HIERARCHY
ROOT Hips
{
	OFFSET	0.00	0.00	0.00
	CHANNELS 6 Xposition Yposition Zposition Zrotation Xrotation Yrotation
	JOINT LeftUpLeg
	{
		OFFSET	 0.126116	-0.065224	 0.014019
		CHANNELS 3 Zrotation Xrotation Yrotation
		JOINT LeftLeg
		{
			OFFSET	 0.000000	 0.569914	 0.000000
			CHANNELS 3 Zrotation Xrotation Yrotation
			JOINT LeftFoot
			{
				OFFSET	 0.000000	 0.544423	 0.000000
				CHANNELS 3 Zrotation Xrotation Yrotation
				JOINT LeftToeBase
				{
					OFFSET	 0.000000	 0.207117	 0.000000
					CHANNELS 3 Zrotation Xrotation Yrotation
					End Site
					{
						OFFSET	 0.000000	 0.207117	 0.000000
					}
				}
			}
		}
	}
	JOINT RightUpLeg
	{
		OFFSET	-0.124023	-0.065224	 0.008373
		CHANNELS 3 Zrotation Xrotation Yrotation
		JOINT RightLeg
		{
			OFFSET	 0.000000	 0.570047	 0.000000
			CHANNELS 3 Zrotation Xrotation Yrotation
			JOINT RightFoot
			{
				OFFSET	 0.000000	 0.544354	 0.000000
				CHANNELS 3 Zrotation Xrotation Yrotation
				JOINT RightToeBase
				{
					OFFSET	 0.000000	 0.207540	 0.000000
					CHANNELS 3 Zrotation Xrotation Yrotation
					End Site
					{
						OFFSET	 0.000000	 0.207540	 0.000000
					}
				}
			}
		}
	}
	JOINT Spine
	{
		OFFSET	 0.000184	 0.117403	 0.007763
		CHANNELS 3 Zrotation Xrotation Yrotation
		JOINT Spine1
		{
			OFFSET	 0.000000	 0.137269	 0.000000
			CHANNELS 3 Zrotation Xrotation Yrotation
			JOINT Spine2
			{
				OFFSET	 0.000000	 0.156879	 0.000000
				CHANNELS 3 Zrotation Xrotation Yrotation
				JOINT LeftShoulder
				{
					OFFSET	 0.080501	 0.160143	 0.002496
					CHANNELS 3 Zrotation Xrotation Yrotation
					JOINT LeftArm
					{
						OFFSET	 0.000000	 0.164363	 0.000000
						CHANNELS 3 Zrotation Xrotation Yrotation
						JOINT LeftForeArm
						{
							OFFSET	 0.000000	 0.364576	 0.000000
							CHANNELS 3 Zrotation Xrotation Yrotation
							JOINT LeftHand
							{
								OFFSET	 0.000000	 0.360812	 0.000000
								CHANNELS 3 Zrotation Xrotation Yrotation
								JOINT LeftHandIndex1
								{
									OFFSET	 0.000000	 0.086006	 0.000000
									CHANNELS 3 Zrotation Xrotation Yrotation
									JOINT LeftHandIndex2
									{
										OFFSET	 0.000000	 0.047237	 0.000000
										CHANNELS 3 Zrotation Xrotation Yrotation
										JOINT LeftHandIndex3
										{
											OFFSET	-0.004284	 0.038165	 0.000551
											CHANNELS 3 Zrotation Xrotation Yrotation
											End Site
											{
												OFFSET	-0.004284	 0.038165	 0.000551
											}
										}
									}
								}
							}
						}
					}
				}
				JOINT Neck
				{
					OFFSET	 0.000000	 0.176489	 0.000000
					CHANNELS 3 Zrotation Xrotation Yrotation
					JOINT Head
					{
						OFFSET	 0.000000	 0.077941	 0.001747
						CHANNELS 3 Zrotation Xrotation Yrotation
						End Site
						{
							OFFSET	 0.000000	 0.077941	 0.001747
						}
					}
				}
				JOINT RightShoulder
				{
					OFFSET	-0.080363	 0.159706	-0.000306
					CHANNELS 3 Zrotation Xrotation Yrotation
					JOINT RightArm
					{
						OFFSET	 0.000000	 0.164196	 0.000000
						CHANNELS 3 Zrotation Xrotation Yrotation
						JOINT RightForeArm
						{
							OFFSET	 0.000000	 0.365611	 0.000000
							CHANNELS 3 Zrotation Xrotation Yrotation
							JOINT RightHand
							{
								OFFSET	 0.000000	 0.360648	 0.000000
								CHANNELS 3 Zrotation Xrotation Yrotation
								JOINT RightHandIndex1
								{
									OFFSET	 0.000000	 0.069977	 0.000000
									CHANNELS 3 Zrotation Xrotation Yrotation
									JOINT RightHandIndex2
									{
										OFFSET	 0.000000	 0.052305	 0.000000
										CHANNELS 3 Zrotation Xrotation Yrotation
										JOINT RightHandIndex3
										{
											OFFSET	 0.009002	 0.042196	 0.000782
											CHANNELS 3 Zrotation Xrotation Yrotation
											End Site
											{
												OFFSET	 0.009002	 0.042196	 0.000782
											}
										}
									}
								}
							}
						}
					}
				}
			}
		}
	}
}
MOTION
Frames:    4
Frame Time: 0.03333334
-0.006838	 1.232813	 0.011327	 1.968201	 0.216215	 172.157700	-160.050800	 13.336480	-28.432160	 5.762703	-20.707390	 3.117297	-11.643490	 63.235870	 4.061695	 1.161947	 26.688180	-2.659627	 173.538900	 10.752300	 19.915530	-2.547998	-30.414010	 7.764959	 13.347310	 77.563300	-9.725123	-1.288917	 28.371490	 2.710486	 2.197554	 6.112371	 1.692011	 0.450311	 3.876635	 0.949857	 1.449234	-3.330903	 0.549726	-113.162900	 6.488458	 92.938440	 38.512770	 37.135780	-8.989758	 4.621241	-0.235898	 0.057348	 6.975400	 18.308000	 8.391490	 0.586418	 8.573983	-0.355615	-5.949303	 13.595430	 1.519866	 4.987244	-3.485370	-0.334047	 3.184908	-6.826354	 0.876322	-1.254271	-5.453215	 3.507197	 123.437400	 10.377110	-96.381180	-6.102198	 39.687460	-2.815147	-5.093907	-0.197923	-0.081911	-1.279007	 4.622505	-21.904810	-2.316871	 4.873802	 0.895897	 12.535860	 22.867900	-5.152056	-8.500438	 13.076650	-0.523885
-0.007039	 1.232632	 0.011797	 1.877977	-0.107624	 171.813200	-159.644200	 13.530140	-30.766780	 5.813786	-20.830970	 3.025615	-10.986590	 63.020230	 3.900446	 1.161645	 26.684090	-2.659507	 172.976900	 11.108190	 21.738240	-2.560338	-30.577430	 7.618015	 12.210700	 77.500270	-8.733790	-1.288628	 28.367690	 2.710364	 2.195182	 5.857244	 2.628707	-0.075577	 3.701276	 1.255279	 1.701388	-3.312209	 0.624567	-113.031200	 6.506974	 92.952290	 38.011630	 37.324580	-8.528996	 4.829518	-0.234334	 0.591190	 7.570501	 18.400070	 8.912695	 0.688690	 8.256636	-0.354827	-5.948002	 13.666730	 1.527511	 4.992403	-3.372061	-0.331315	 3.181170	-6.829135	 0.897849	-1.258081	-5.516515	 3.671712	 123.349100	 10.391500	-96.371940	-5.690102	 39.699770	-2.967851	-5.281384	-0.195993	-0.615567	-1.817538	 4.690280	-21.153600	-2.353853	 4.989632	 0.894442	 12.558120	 23.173460	-5.225944	-8.502619	 13.326760	-0.539676
-0.007458	 1.232224	 0.012798	 1.694578	-0.624385	 170.906100	-158.984100	 13.726120	-34.436310	 5.899426	-21.109950	 2.684230	-10.512440	 62.854070	 4.152747	 1.160843	 26.673240	-2.659189	 172.149500	 11.785490	 24.028610	-2.583458	-30.912720	 7.232682	 9.706142	 77.384150	-6.432290	-1.287861	 28.357590	 2.710039	 2.224804	 5.535686	 5.154642	-1.567923	 3.479041	 2.134094	 2.413441	-3.391566	 0.815479	-112.681600	 6.556291	 92.988850	 37.399150	 37.607170	-7.783608	 5.424916	-0.232560	 2.007960	 8.623080	 18.723730	 10.420220	 0.959970	 7.413784	-0.349965	-5.944596	 13.855970	 1.547806	 5.006067	-3.071285	-0.324114	 3.171254	-6.836526	 0.954984	-1.267272	-5.684748	 4.108645	 123.114600	 10.429590	-96.347310	-5.030904	 40.015120	-3.102393	-5.854464	-0.193536	-2.031810	-2.927234	 4.551675	-19.027270	-2.452035	 5.297101	 0.890942	 12.619590	 23.984820	-5.423645	-8.508077	 13.990870	-0.581638
-0.007894	 1.231842	 0.013840	 1.520961	-1.060041	 169.929800	-158.416400	 13.811350	-37.472680	 5.983387	-21.382440	 2.312334	-10.498060	 62.844770	 4.690339	 1.159976	 26.661510	-2.658844	 171.519200	 12.419400	 25.531330	-2.602631	-31.211870	 6.819037	 7.160690	 77.237030	-4.053287	-1.287032	 28.346690	 2.709688	 2.285820	 5.324912	 7.950763	-3.298710	 3.349456	 3.177114	 3.234487	-3.557217	 1.016141	-112.303800	 6.609825	 93.028050	 37.024880	 37.779050	-7.158981	 6.084177	-0.231506	 3.536666	 9.571597	 19.174780	 12.196420	 1.252928	 6.502166	-0.340194	-5.940990	 14.060480	 1.569744	 5.020789	-2.746213	-0.316415	 3.160545	-6.844524	 1.016729	-1.275707	-5.866597	 4.581258	 122.861200	 10.470660	-96.320500	-4.470662	 40.502640	-3.155285	-6.502870	-0.192275	-3.559964	-3.998961	 4.217080	-16.555740	-2.558187	 5.629420	 0.887753	 12.689990	 24.862090	-5.639977	-8.513431	 14.708910	-0.627075
